<svg id="mermaid-svg" width="100%" xmlns="http://www.w3.org/2000/svg" style="max-width: 143.58767700195312px;" viewBox="0 0 143.58767700195312 293" role="graphics-document document" aria-roledescription="er" xmlns:xlink="http://www.w3.org/1999/xlink"><style xmlns="http://www.w3.org/1999/xhtml">@import url("https://cdnjs.cloudflare.com/ajax/libs/font-awesome/6.7.2/css/all.min.css");</style><style>#mermaid-svg{font-family:"trebuchet ms",verdana,arial,sans-serif;font-size:16px;fill:#333;}#mermaid-svg .error-icon{fill:#552222;}#mermaid-svg .error-text{fill:#552222;stroke:#552222;}#mermaid-svg .edge-thickness-normal{stroke-width:1px;}#mermaid-svg .edge-thickness-thick{stroke-width:3.5px;}#mermaid-svg .edge-pattern-solid{stroke-dasharray:0;}#mermaid-svg .edge-thickness-invisible{stroke-width:0;fill:none;}#mermaid-svg .edge-pattern-dashed{stroke-dasharray:3;}#mermaid-svg .edge-pattern-dotted{stroke-dasharray:2;}#mermaid-svg .marker{fill:#333333;stroke:#333333;}#mermaid-svg .marker.cross{stroke:#333333;}#mermaid-svg svg{font-family:"trebuchet ms",verdana,arial,sans-serif;font-size:16px;}#mermaid-svg p{margin:0;}#mermaid-svg .entityBox{fill:#ECECFF;stroke:#9370DB;}#mermaid-svg .attributeBoxOdd{fill:#ffffff;stroke:#9370DB;}#mermaid-svg .attributeBoxEven{fill:#f2f2f2;stroke:#9370DB;}#mermaid-svg .relationshipLabelBox{fill:hsl(80, 100%, 96.2745098039%);opacity:0.7;background-color:hsl(80, 100%, 96.2745098039%);}#mermaid-svg .relationshipLabelBox rect{opacity:0.5;}#mermaid-svg .relationshipLine{stroke:#333333;}#mermaid-svg .entityTitleText{text-anchor:middle;font-size:18px;fill:#333;}#mermaid-svg #MD_PARENT_START{fill:#f5f5f5!important;stroke:#333333!important;stroke-width:1;}#mermaid-svg #MD_PARENT_END{fill:#f5f5f5!important;stroke:#333333!important;stroke-width:1;}#mermaid-svg :root{--mermaid-font-family:"trebuchet ms",verdana,arial,sans-serif;}</style><g/><defs><marker id="MD_PARENT_START" refX="0" refY="7" markerWidth="190" markerHeight="240" orient="auto"><path d="M 18,7 L9,13 L1,7 L9,1 Z"/></marker></defs><defs><marker id="MD_PARENT_END" refX="19" refY="7" markerWidth="20" markerHeight="28" orient="auto"><path d="M 18,7 L9,13 L1,7 L9,1 Z"/></marker></defs><defs><marker id="ONLY_ONE_START" refX="0" refY="9" markerWidth="18" markerHeight="18" orient="auto"><path stroke="gray" fill="none" d="M9,0 L9,18 M15,0 L15,18"/></marker></defs><defs><marker id="ONLY_ONE_END" refX="18" refY="9" markerWidth="18" markerHeight="18" orient="auto"><path stroke="gray" fill="none" d="M3,0 L3,18 M9,0 L9,18"/></marker></defs><defs><marker id="ZERO_OR_ONE_START" refX="0" refY="9" markerWidth="30" markerHeight="18" orient="auto"><circle stroke="gray" fill="white" cx="21" cy="9" r="6"/><path stroke="gray" fill="none" d="M9,0 L9,18"/></marker></defs><defs><marker id="ZERO_OR_ONE_END" refX="30" refY="9" markerWidth="30" markerHeight="18" orient="auto"><circle stroke="gray" fill="white" cx="9" cy="9" r="6"/><path stroke="gray" fill="none" d="M21,0 L21,18"/></marker></defs><defs><marker id="ONE_OR_MORE_START" refX="18" refY="18" markerWidth="45" markerHeight="36" orient="auto"><path stroke="gray" fill="none" d="M0,18 Q 18,0 36,18 Q 18,36 0,18 M42,9 L42,27"/></marker></defs><defs><marker id="ONE_OR_MORE_END" refX="27" refY="18" markerWidth="45" markerHeight="36" orient="auto"><path stroke="gray" fill="none" d="M3,9 L3,27 M9,18 Q27,0 45,18 Q27,36 9,18"/></marker></defs><defs><marker id="ZERO_OR_MORE_START" refX="18" refY="18" markerWidth="57" markerHeight="36" orient="auto"><circle stroke="gray" fill="white" cx="48" cy="18" r="6"/><path stroke="gray" fill="none" d="M0,18 Q18,0 36,18 Q18,36 0,18"/></marker></defs><defs><marker id="ZERO_OR_MORE_END" refX="39" refY="18" markerWidth="57" markerHeight="36" orient="auto"><circle stroke="gray" fill="white" cx="9" cy="18" r="6"/><path stroke="gray" fill="none" d="M21,18 Q39,0 57,18 Q39,36 21,18"/></marker></defs><path class="er relationshipLine" d="M71.794,86L71.794,94.333C71.794,102.667,71.794,119.333,71.794,136C71.794,152.667,71.794,169.333,71.794,177.667L71.794,186" marker-end="url(#ZERO_OR_MORE_END)" marker-start="url(#ONLY_ONE_START)" style="stroke: gray; fill: none;"/><g id="entity-AUTOR-e9949443-e31f-5c7f-9a9b-86c3df20db93" transform="translate(20,20 )"><rect class="er entityBox" x="0" y="0" width="103.58767700195312" height="66"/><text class="er entityLabel" id="text-entity-AUTOR-e9949443-e31f-5c7f-9a9b-86c3df20db93" x="0" y="0" transform="translate(51.79383850097656,12)" style="dominant-baseline: middle; text-anchor: middle; font-size: 12px;">AUTOR</text><rect class="er attributeBoxOdd" x="0" y="24" width="35.245819091796875" height="21"/><text class="er entityLabel" id="text-entity-AUTOR-e9949443-e31f-5c7f-9a9b-86c3df20db93-attr-1-type" x="0" y="0" transform="translate(5,34.5)" style="dominant-baseline: middle; font-size: 10.2px;">int</text><rect class="er attributeBoxOdd" x="35.245819091796875" y="24" width="44.546875" height="21"/><text class="er entityLabel" id="text-entity-AUTOR-e9949443-e31f-5c7f-9a9b-86c3df20db93-attr-1-name" x="0" y="0" transform="translate(40.245819091796875,34.5)" style="dominant-baseline: middle; font-size: 10.2px;">AutorID</text><rect class="er attributeBoxOdd" x="79.79269409179688" y="24" width="23.79498291015625" height="21"/><text class="er entityLabel" id="text-entity-AUTOR-e9949443-e31f-5c7f-9a9b-86c3df20db93-attr-1-key" x="0" y="0" transform="translate(84.79269409179688,34.5)" style="dominant-baseline: middle; font-size: 10.2px;">PK</text><rect class="er attributeBoxEven" x="0" y="45" width="35.245819091796875" height="21"/><text class="er entityLabel" id="text-entity-AUTOR-e9949443-e31f-5c7f-9a9b-86c3df20db93-attr-2-type" x="0" y="0" transform="translate(5,55.5)" style="dominant-baseline: middle; font-size: 10.2px;">string</text><rect class="er attributeBoxEven" x="35.245819091796875" y="45" width="44.546875" height="21"/><text class="er entityLabel" id="text-entity-AUTOR-e9949443-e31f-5c7f-9a9b-86c3df20db93-attr-2-name" x="0" y="0" transform="translate(40.245819091796875,55.5)" style="dominant-baseline: middle; font-size: 10.2px;">Name</text><rect class="er attributeBoxEven" x="79.79269409179688" y="45" width="23.79498291015625" height="21"/><text class="er entityLabel" id="text-entity-AUTOR-e9949443-e31f-5c7f-9a9b-86c3df20db93-attr-2-key" x="0" y="0" transform="translate(84.79269409179688,55.5)" style="dominant-baseline: middle; font-size: 10.2px;"/></g><g id="entity-BUCH-37923d99-8148-593f-8494-25420b2752b8" transform="translate(20,186 )"><rect class="er entityBox" x="0" y="0" width="103.58767700195312" height="87"/><text class="er entityLabel" id="text-entity-BUCH-37923d99-8148-593f-8494-25420b2752b8" x="0" y="0" transform="translate(51.79383850097656,12)" style="dominant-baseline: middle; text-anchor: middle; font-size: 12px;">BUCH</text><rect class="er attributeBoxOdd" x="0" y="24" width="35.245819091796875" height="21"/><text class="er entityLabel" id="text-entity-BUCH-37923d99-8148-593f-8494-25420b2752b8-attr-1-type" x="0" y="0" transform="translate(5,34.5)" style="dominant-baseline: middle; font-size: 10.2px;">int</text><rect class="er attributeBoxOdd" x="35.245819091796875" y="24" width="44.546875" height="21"/><text class="er entityLabel" id="text-entity-BUCH-37923d99-8148-593f-8494-25420b2752b8-attr-1-name" x="0" y="0" transform="translate(40.245819091796875,34.5)" style="dominant-baseline: middle; font-size: 10.2px;">BuchID</text><rect class="er attributeBoxOdd" x="79.79269409179688" y="24" width="23.79498291015625" height="21"/><text class="er entityLabel" id="text-entity-BUCH-37923d99-8148-593f-8494-25420b2752b8-attr-1-key" x="0" y="0" transform="translate(84.79269409179688,34.5)" style="dominant-baseline: middle; font-size: 10.2px;">PK</text><rect class="er attributeBoxEven" x="0" y="45" width="35.245819091796875" height="21"/><text class="er entityLabel" id="text-entity-BUCH-37923d99-8148-593f-8494-25420b2752b8-attr-2-type" x="0" y="0" transform="translate(5,55.5)" style="dominant-baseline: middle; font-size: 10.2px;">string</text><rect class="er attributeBoxEven" x="35.245819091796875" y="45" width="44.546875" height="21"/><text class="er entityLabel" id="text-entity-BUCH-37923d99-8148-593f-8494-25420b2752b8-attr-2-name" x="0" y="0" transform="translate(40.245819091796875,55.5)" style="dominant-baseline: middle; font-size: 10.2px;">Titel</text><rect class="er attributeBoxEven" x="79.79269409179688" y="45" width="23.79498291015625" height="21"/><text class="er entityLabel" id="text-entity-BUCH-37923d99-8148-593f-8494-25420b2752b8-attr-2-key" x="0" y="0" transform="translate(84.79269409179688,55.5)" style="dominant-baseline: middle; font-size: 10.2px;"/><rect class="er attributeBoxOdd" x="0" y="66" width="35.245819091796875" height="21"/><text class="er entityLabel" id="text-entity-BUCH-37923d99-8148-593f-8494-25420b2752b8-attr-3-type" x="0" y="0" transform="translate(5,76.5)" style="dominant-baseline: middle; font-size: 10.2px;">int</text><rect class="er attributeBoxOdd" x="35.245819091796875" y="66" width="44.546875" height="21"/><text class="er entityLabel" id="text-entity-BUCH-37923d99-8148-593f-8494-25420b2752b8-attr-3-name" x="0" y="0" transform="translate(40.245819091796875,76.5)" style="dominant-baseline: middle; font-size: 10.2px;">AutorID</text><rect class="er attributeBoxOdd" x="79.79269409179688" y="66" width="23.79498291015625" height="21"/><text class="er entityLabel" id="text-entity-BUCH-37923d99-8148-593f-8494-25420b2752b8-attr-3-key" x="0" y="0" transform="translate(84.79269409179688,76.5)" style="dominant-baseline: middle; font-size: 10.2px;">FK</text></g><rect class="er relationshipLabelBox" x="50.45220184326172" y="129" width="42.68359375" height="14"/><text class="er relationshipLabel" id="rel1" x="71.79399871826172" y="136" style="text-anchor: middle; dominant-baseline: middle; font-size: 12px;">schreibt</text></svg>